<svg xmlns="http://www.w3.org/2000/svg" viewBox="0 0 128 128">
  <rect width="128" height="128" rx="20" fill="#1AB7EB"/>
  <path fill="#fff" d="M83.457 54.48c-.51 11.15-8.295 26.419-23.354 45.798q-23.354 30.365-39.518 30.366c-6.672 0-12.324-6.163-16.936-18.493l-9.243-33.904c-3.427-12.324-7.1-18.493-11.032-18.493c-.855 0-3.854 1.804-8.986 5.396L0 72.206c5.65-4.967 11.226-9.935 16.713-14.908c7.536-6.516 13.194-9.942 16.966-10.288q13.369-1.284 16.456 18.282c2.225 14.075 3.764 22.829 4.63 26.255c2.569 11.677 5.394 17.509 8.483 17.509q3.595 0 10.798-11.362q7.191-11.359 7.71-17.297c.683-6.538-1.886-9.814-7.71-9.814c-2.743 0-5.57.631-8.476 1.878c5.628-18.44 16.38-27.397 32.251-26.886q17.651.519 16.636 22.904"/>
</svg>